<?xml version="1.0" encoding="UTF-8"?>
<!DOCTYPE svg PUBLIC "-//W3C//DTD SVG 1.1//EN" "http://www.w3.org/Graphics/SVG/1.1/DTD/svg11.dtd">
<svg xmlns="http://www.w3.org/2000/svg" xml:space="preserve" width="100%" height="100%" version="1.1" style="shape-rendering:geometricPrecision; text-rendering:geometricPrecision; image-rendering:optimizeQuality; fill-rule:evenodd; clip-rule:evenodd"
viewBox="0 0 10000 16991"
 xmlns:xlink="http://www.w3.org/1999/xlink">
  <path style="fill:#fff" d="M7703 14142c30,-145 30,-305 30,-450 0,-756 -306,-1439 -800,-1933 -494,-494 -1177,-800 -1918,-800 -756,0 -1439,306 -1934,800 -494,494 -799,1177 -799,1933 0,320 58,639 160,945 174,407 421,770 727,1061 465,436 1090,697 1816,697 742,0 1396,-276 1875,-726 422,-393 713,-931 843,-1527l0 0zm-5973 -2892c58,-276 116,-625 145,-1061 15,-102 276,-1047 276,-1047 44,-159 654,-2659 683,-2834 58,-276 349,-523 494,-654 0,0 -29,-160 -72,-465 -15,-102 -58,-669 116,-988 160,-306 640,-873 1206,-1120 0,0 88,88 73,160 -14,58 -145,698 -145,858 -15,203 43,523 43,581 0,0 15,44 44,44 58,0 73,-58 87,-87 -14,14 73,-160 146,-364 72,-189 145,-538 189,-828 43,-305 72,-611 72,-698 15,-102 15,-218 -43,-363 -44,-102 -102,-160 -175,-189 -72,-29 -160,-15 -203,0 14,0 -117,43 -160,87 -73,44 -131,131 -175,160 -43,14 -72,14 -72,14 29,-116 58,-479 523,-683 73,-29 291,-43 392,-14 0,0 175,72 262,189 131,189 189,261 204,857 14,335 -88,843 -102,1003 -29,175 -204,989 -204,989l131 72c0,0 44,0 116,-116 59,-116 378,-770 451,-959 73,-175 247,-567 334,-843 73,-277 131,-407 73,-538 -73,-116 -145,-146 -247,-146 -145,-14 -262,59 -305,73 -44,29 -131,87 -160,44 -44,-58 43,-131 101,-175 59,-58 320,-189 466,-218 145,-14 392,0 494,175 102,174 145,290 87,683 -44,392 -422,1250 -480,1424 -72,189 -421,1090 -421,1090 0,0 261,335 291,524 29,160 -30,290 -15,334 0,0 -15,44 44,145 43,102 334,596 378,669 43,87 276,407 334,494 58,73 160,218 174,363 0,0 44,102 29,189 -29,88 -72,189 -145,218 -58,44 -87,29 -116,29 -15,15 -44,44 -73,59 -29,29 -102,87 -131,116 -43,14 -116,58 -145,58 -29,15 -116,44 -204,58 -87,0 -348,0 -421,-14 -15,-15 -116,-15 -116,-15l0 189c0,0 0,-14 43,102 58,116 204,494 741,1104 0,0 189,189 291,233 102,44 276,87 320,116 44,15 174,117 232,189 59,58 335,407 407,480 73,73 131,160 364,262l1075 -5480 0 -29c29,-116 44,-247 59,-378 0,-131 14,-247 14,-378 0,-1221 -494,-2326 -1294,-3110 -799,-800 -1889,-1294 -3110,-1294 -1221,0 -2311,494 -3110,1294 -800,784 -1294,1889 -1294,3110 0,131 0,247 14,378 15,131 30,262 59,378l0 14 1061 5480 0 0zm101 523l233 1163c145,-538 421,-1017 799,-1395 349,-349 785,-625 1279,-771 30,-203 102,-596 131,-668 44,-117 131,-349 175,-494l130 -480c0,-29 88,-116 88,-131 0,0 14,-29 0,-58 -15,-44 -160,-174 -204,-189 -43,-15 -247,-15 -276,-15 -14,-14 -131,-203 -145,-261 -29,-73 -44,-247 -73,-305 -29,-73 -131,-480 -131,-524 -14,-43 15,-87 29,-101 15,0 87,14 87,14 44,15 30,29 73,116 102,175 262,335 378,422 102,73 305,116 305,116 88,29 160,15 422,15 247,0 392,43 538,87 145,44 87,14 319,131 233,102 538,14 582,-15 29,-14 131,-58 160,-87 14,-29 14,-44 14,-73 -14,-14 -58,-29 -72,-29 -30,-14 -102,15 -117,15 -14,14 -43,43 -87,29 -29,-15 -160,-131 -174,-145 -15,-30 -15,-88 0,-131 0,-58 29,-87 58,-102 29,-15 87,0 116,29 15,15 15,58 29,102 0,58 73,58 131,72 44,15 102,15 174,30 58,14 58,-15 102,-44 44,-29 58,-58 87,-116 15,-58 -29,-175 -29,-175 -305,-494 -392,-552 -436,-610 -58,-58 -320,-349 -407,-480 -87,-116 -203,-450 -218,-480 0,-43 -43,-72 -73,-72 -14,-15 -29,14 -72,29 -44,29 -131,14 -189,14 -58,0 -131,15 -145,29 -15,15 0,189 0,248 0,58 -15,116 -44,189 -44,87 -116,87 -320,43 -203,-43 -305,-232 -334,-276 -15,-44 -15,-87 0,-102 14,-29 43,-14 58,0 29,0 87,73 116,87 29,15 146,15 204,15 43,0 72,-44 72,-73 15,-29 15,-131 0,-160 -14,-29 -43,-29 -58,-29 -29,0 -72,0 -87,0 -29,0 -73,-29 -102,-29 -43,0 -101,29 -145,44 -29,29 -87,29 -102,29 -14,0 -29,-305 -29,-305 0,0 146,0 189,-15 44,-14 247,-43 305,-58 73,-15 73,-44 88,-116 14,-73 58,-146 72,-160 29,-15 160,-15 160,-15 29,-58 0,-130 -43,-174 -44,-44 -131,-58 -189,-73 -73,-14 -262,-14 -291,0 -15,0 -189,87 -247,87 -58,0 -73,-29 -73,-43 -14,-29 -14,-102 -29,-146 -15,-58 -87,-101 -131,-116 -58,-14 -72,15 -131,29 -58,15 -290,276 -319,335 -44,43 -44,43 -59,43 -29,0 -58,-131 -58,-189 15,-58 393,-363 422,-392 0,0 0,-29 -15,-102 -14,-58 -29,-451 -14,-581 0,-146 72,-596 87,-640 15,-43 58,-102 -44,-116 -87,0 -305,160 -450,334 -204,233 -291,538 -349,683 -44,189 -73,829 -73,829 0,160 102,683 102,683 -116,0 -160,-29 -276,131 -116,160 -160,363 -131,552 15,160 -14,393 -73,611 -58,203 -290,697 -363,886 -58,175 -131,334 -160,523 -14,204 -102,524 -203,742 -58,131 -218,639 -262,1119 -29,523 -160,916 -233,1075 -14,44 -14,88 -29,131l0 0zm7864 -6366c-15,73 -29,145 -29,218l-1614 8183c0,131 -29,247 -43,364 -102,639 -407,1220 -858,1657 -552,552 -1308,886 -2136,886 -843,0 -1599,-334 -2152,-886 -319,-306 -566,-698 -712,-1120 -102,-247 -160,-508 -203,-785l-1614 -8299c-14,-73 -14,-145 -29,-218 -14,-145 -14,-276 -14,-407 0,-1308 523,-2485 1381,-3328 843,-858 2020,-1381 3328,-1381 1294,0 2471,523 3328,1381 844,843 1381,2020 1381,3328 0,131 -14,262 -14,407zm-6512 8430c131,189 320,320 480,320 116,0 247,-58 247,-291 0,-479 -698,-392 -698,-1293 0,-218 58,-436 175,-582 116,-145 247,-189 392,-189 131,0 276,44 393,117l0 479c-102,-116 -204,-189 -320,-189 -102,0 -204,58 -204,247 0,204 131,277 218,335 102,87 218,160 306,305 101,174 174,349 174,610 0,262 -73,495 -189,654 -131,175 -291,204 -451,204 -145,0 -305,-44 -450,-145l-73 -582 0 0zm2064 1250c131,73 363,73 509,73 232,0 407,-44 581,-175l-160 582 -1686 0 0 -15c204,-130 175,-363 175,-581l0 -2486c0,-218 29,-465 -175,-595l0 -15 931 0 0 15c-204,130 -175,377 -175,595l0 2602 0 0zm959 -2761c44,-15 102,-29 146,-29 290,0 363,508 363,915 0,218 -14,436 -73,611 -72,232 -174,305 -319,305 -29,0 -73,-15 -117,-29l0 -1773zm-421 1628c0,203 14,436 -102,552l0 14 523 0c247,0 480,29 684,-276 188,-232 276,-639 276,-1032 0,-436 -102,-843 -306,-1104 -203,-248 -436,-233 -683,-233l-494 0 0 15c44,29 73,130 87,203 15,116 15,480 15,625l0 1236 0 0zm-1788 -9826c44,29 44,44 15,102 -29,72 -73,319 -44,407 15,87 29,203 -15,203 0,0 -29,0 -87,15 -43,14 -43,43 -72,43 -44,0 -59,-29 -59,-58 0,-43 44,-450 102,-552 44,-102 73,-116 116,-160 30,-15 44,0 44,0l0 0zm-407 2064c15,0 58,0 73,43 14,44 14,117 43,160 15,44 73,160 88,204 0,29 14,102 -29,131 -44,43 -73,43 -131,43 -58,0 -58,0 -58,-14 -15,-15 -15,-15 -15,-29 0,-29 -29,-451 -14,-509 0,-29 43,-29 43,-29l0 0zm160 712c15,0 44,29 44,73 14,43 72,160 87,349 0,0 0,174 -73,174 -29,0 -116,-87 -131,-116 0,-29 -87,-247 -43,-393 0,0 58,-58 72,-72 15,-15 44,-15 44,-15l0 0zm6134 -872c43,-174 72,-349 87,-523 14,-160 29,-335 29,-509 0,-1381 -567,-2631 -1468,-3532 -901,-916 -2151,-1468 -3532,-1468 -1381,0 -2631,552 -3532,1468 -916,901 -1468,2151 -1468,3532 0,145 0,291 15,422l0 14c14,145 29,276 58,422l29 159 1584 7980c131,843 538,1599 1148,2151 582,524 1338,843 2181,843 828,0 1613,-319 2209,-857 596,-553 1017,-1294 1119,-2137l0 -14 1541 -7951 0 0z"/>
</svg>
